<?xml version="1.0" standalone="no"?>
<!DOCTYPE svg PUBLIC "-//W3C//DTD SVG 20010904//EN"
 "http://www.w3.org/TR/2001/REC-SVG-20010904/DTD/svg10.dtd">
<svg version="1.0" xmlns="http://www.w3.org/2000/svg"
 width="667.000000pt" height="1000.000000pt" viewBox="0 0 667.000000 1000.000000"
 preserveAspectRatio="xMidYMid meet">

<g transform="translate(0.000000,1000.000000) scale(0.100000,-0.100000)"
fill="#000000" stroke="none">
<path d="M522 9967 c-31 -32 -32 -36 -32 -120 l0 -87 -85 0 -85 0 0 -85 0 -85
-88 0 -88 0 -72 -73 c-40 -40 -72 -81 -72 -92 0 -14 20 0 78 57 l77 77 80 3
80 3 3 -74 3 -75 -83 -83 -83 -83 83 -83 82 -82 0 -78 0 -77 -79 0 -79 0 -81
81 c-58 58 -81 76 -81 62 0 -10 33 -51 72 -90 l73 -72 85 -3 85 -3 3 -87 3
-88 84 0 85 0 0 -83 0 -83 70 -69 c39 -38 70 -74 70 -80 0 -6 -32 -42 -70 -80
l-70 -69 0 -83 0 -83 -85 0 -84 0 -3 -87 -3 -88 -85 -3 -85 -3 -73 -72 c-65
-64 -86 -97 -64 -97 4 0 40 34 80 75 l73 75 79 0 80 0 0 -77 0 -78 -82 -82
-83 -83 83 -83 83 -83 -3 -75 -3 -74 -74 -3 -75 -3 -83 83 c-61 60 -83 77 -83
63 0 -11 32 -52 72 -92 l72 -73 88 0 88 0 0 -89 0 -90 58 4 c31 3 69 2 84 -1
28 -6 28 -6 28 -87 l0 -82 72 -72 72 -73 -72 -73 -72 -72 0 -88 0 -87 -90 0
-90 0 0 -85 0 -85 -81 0 -81 0 -74 -72 c-45 -43 -74 -80 -74 -92 0 -16 18 -3
78 57 l77 77 78 0 77 0 0 -78 0 -78 -75 -74 c-41 -41 -75 -79 -75 -85 0 -6 34
-44 75 -85 l75 -74 0 -78 0 -78 -77 0 -78 0 -77 77 c-59 59 -78 73 -78 58 0
-12 31 -51 73 -93 l72 -72 83 0 82 0 0 -85 0 -85 90 0 90 0 0 -87 0 -88 72
-72 72 -73 -71 -72 -72 -73 -3 -85 -3 -85 -87 -3 -88 -3 0 -84 0 -85 -83 0
-83 0 -72 -73 c-40 -40 -72 -81 -72 -92 0 -14 20 1 78 58 l78 77 74 3 75 2 3
-79 3 -80 -77 -77 c-45 -45 -74 -82 -69 -88 3 -6 38 -42 76 -79 l69 -67 0 -82
0 -83 -77 0 -78 0 -77 77 c-49 49 -78 71 -78 61 0 -10 33 -49 72 -87 l73 -71
73 0 c39 0 75 0 80 0 4 0 9 -39 12 -87 l5 -88 88 -3 87 -3 0 -82 0 -82 70 -70
c38 -39 70 -75 70 -80 0 -6 -32 -42 -70 -80 l-70 -69 0 -83 0 -83 -85 0 -84 0
-3 -87 -3 -88 -85 -3 -85 -3 -72 -72 c-42 -41 -73 -80 -73 -92 0 -15 21 1 83
63 l82 82 78 0 77 0 0 -77 0 -78 -82 -82 -83 -83 83 -82 83 -82 -3 -76 -3 -75
-74 -3 -75 -3 -83 83 c-61 61 -83 77 -83 63 0 -11 32 -51 73 -93 l73 -72 87 0
87 0 0 -85 0 -85 85 0 85 0 0 -87 0 -88 75 -75 75 -74 -75 -76 -75 -75 0 -83
0 -82 -85 0 -85 0 0 -85 0 -85 -83 0 -82 0 -78 -78 c-69 -69 -92 -103 -69
-102 4 1 41 34 82 75 l74 75 78 0 78 0 0 -78 0 -77 -80 -80 -80 -80 80 -80 80
-80 0 -78 0 -77 -80 0 -81 0 -77 76 c-42 42 -78 70 -80 64 -3 -7 31 -48 74
-91 l79 -79 82 0 83 0 0 -85 0 -85 85 0 85 0 0 -83 0 -82 79 -79 c43 -43 84
-77 91 -74 7 2 -22 38 -64 80 l-76 77 0 81 0 80 78 0 77 0 80 -80 80 -80 80
80 80 80 78 0 77 0 0 -79 0 -79 -77 -78 c-44 -46 -71 -80 -63 -82 6 -2 48 31
91 74 l79 79 0 82 0 83 85 0 85 0 0 85 0 85 82 0 83 0 76 76 76 75 74 -75 74
-76 83 0 82 0 0 -85 0 -85 90 0 90 0 0 -86 0 -87 72 -73 c42 -42 82 -74 93
-74 14 0 0 20 -58 78 l-77 77 0 83 0 82 72 0 73 0 82 -82 83 -83 83 83 82 82
78 0 77 0 0 -77 0 -78 -82 -82 c-62 -62 -78 -83 -63 -83 12 0 53 33 99 79 77
77 78 79 76 127 -1 27 -1 64 -1 82 l1 32 85 0 85 0 0 85 0 85 82 0 83 0 75 75
76 75 74 -75 75 -75 83 0 82 0 0 -85 0 -85 90 0 90 0 0 -86 0 -86 72 -74 c43
-44 81 -74 92 -74 16 0 0 21 -62 83 l-83 83 3 75 3 74 74 3 75 3 83 -83 83
-83 83 83 82 82 78 0 77 0 0 -77 0 -78 -82 -82 c-61 -61 -77 -83 -63 -83 11 0
52 32 92 72 l73 72 0 88 0 88 90 0 90 0 0 85 0 85 83 0 83 0 74 75 75 75 75
-75 75 -75 83 0 82 0 0 -85 0 -84 88 -3 87 -3 3 -85 3 -85 72 -73 c41 -41 80
-72 92 -72 15 0 -1 21 -63 83 l-82 82 0 78 0 77 77 0 78 0 81 -81 81 -81 83
82 82 81 76 -3 75 -3 -2 -80 -2 -80 -77 -78 c-51 -51 -71 -77 -59 -77 10 0 51
34 92 76 l75 76 0 84 0 84 85 0 85 0 0 85 0 85 83 0 83 0 77 73 c45 42 77 81
77 92 0 14 -21 -1 -78 -58 l-77 -77 -83 0 -82 0 0 75 0 76 81 80 c94 92 96 71
-18 184 l-63 61 0 77 0 77 82 0 83 0 77 -77 c43 -43 78 -71 78 -63 0 9 -35 50
-78 93 l-77 77 -83 0 -82 0 0 85 0 85 -85 0 -85 0 0 83 0 83 -70 69 c-38 38
-70 74 -70 80 0 6 31 42 70 80 l69 69 3 85 3 86 80 0 80 0 5 85 5 85 85 3 85
3 73 72 c41 41 72 80 72 92 0 15 -21 -1 -83 -63 l-83 -83 -75 3 -74 3 -3 74
-3 75 83 83 83 83 -83 83 -83 83 3 75 3 74 77 3 76 3 81 -83 c61 -62 81 -78
81 -63 0 12 -30 50 -72 92 l-73 72 -85 3 -85 3 -3 88 -3 87 -84 0 -85 0 0 83
0 83 -75 74 -74 74 74 78 75 78 0 80 0 80 85 0 84 0 3 88 3 87 86 3 86 3 72
73 c65 68 84 96 63 96 -4 0 -41 -34 -82 -75 l-74 -75 -78 0 -78 0 0 78 0 79
80 79 80 79 -80 80 -81 81 3 80 3 79 75 1 75 0 77 -78 c43 -43 80 -78 83 -78
20 0 -6 36 -73 103 l-77 77 -83 0 -82 0 0 85 0 85 -85 0 -85 0 0 82 0 83 -77
77 -78 78 78 78 77 77 0 83 0 82 85 0 85 0 0 85 0 85 83 0 82 0 78 78 c69 70
91 102 69 102 -4 0 -41 -34 -82 -75 l-74 -75 -78 0 -78 0 0 78 0 77 80 80 80
80 -80 80 -80 80 0 78 0 77 78 0 78 0 74 -75 c41 -41 78 -75 82 -75 23 0 -1
35 -71 103 l-79 77 -81 0 -81 0 0 85 0 85 -85 0 -85 0 0 81 0 81 -75 77 -75
77 75 76 75 76 0 85 0 85 71 -3 c38 -2 77 -1 85 2 11 4 14 25 14 89 l0 84 86
0 86 0 74 72 c44 43 74 80 74 92 0 16 -20 0 -83 -62 l-83 -83 -75 3 -74 3 -3
77 -3 76 83 81 83 81 -83 83 -82 82 0 78 0 77 77 0 78 0 82 -82 c62 -62 83
-78 83 -63 0 12 -31 51 -73 93 l-72 72 -88 0 -87 0 0 90 0 90 -85 0 -85 0 0
83 0 83 -75 74 -75 75 75 75 75 75 0 83 0 82 85 0 84 0 3 88 3 87 83 1 83 0
74 74 c44 43 75 83 75 95 0 15 -21 -1 -83 -63 l-82 -82 -78 0 -77 0 0 77 0 78
81 81 82 82 -82 81 -82 80 3 77 3 77 75 1 75 1 83 -79 c49 -47 82 -73 82 -64
0 9 -34 51 -77 92 l-76 76 -84 0 -83 0 0 85 0 85 -85 0 -85 0 0 83 c0 79 -1
83 -33 120 -19 20 -42 37 -52 37 -15 0 -12 -7 18 -38 37 -37 37 -39 37 -120
l0 -82 -74 0 -73 0 -83 80 c-46 44 -85 80 -87 80 -3 0 -41 -36 -85 -80 l-81
-81 -71 3 -71 3 -3 79 -3 79 38 39 c29 29 33 38 19 38 -10 0 -33 -17 -52 -37
-32 -37 -34 -41 -34 -120 l0 -83 -85 0 -85 0 0 -85 0 -85 -85 0 -86 0 -73 -74
-73 -74 -74 74 -73 74 -83 0 -83 0 0 85 0 85 -90 0 -90 0 0 88 c0 86 -1 89
-33 120 -18 18 -42 32 -52 32 -16 0 -12 -7 18 -38 37 -37 37 -39 37 -120 l0
-82 -72 0 -73 0 -82 82 -83 83 -83 -83 -82 -82 -78 0 -77 0 0 78 c0 76 1 79
35 112 19 19 35 38 35 42 0 18 -28 6 -58 -25 -29 -30 -31 -37 -34 -117 l-3
-85 -87 -3 -88 -3 0 -84 0 -85 -83 0 -83 0 -74 -75 -75 -75 -75 75 -75 75 -83
0 -82 0 0 85 0 84 -87 3 -88 3 -3 85 c-3 80 -5 87 -34 117 -18 18 -41 33 -52
33 -17 0 -13 -7 22 -43 l43 -44 -3 -74 -3 -74 -74 -3 -75 -3 -83 83 -82 82
-85 -82 -84 -83 -74 3 -73 3 -3 75 -2 75 41 43 c32 33 37 42 22 42 -11 0 -33
-15 -51 -33 -29 -30 -31 -37 -34 -117 l-3 -85 -87 -3 -88 -3 0 -84 0 -85 -83
0 -83 0 -74 -75 -75 -75 -75 75 -75 75 -83 0 -82 0 0 85 0 84 -87 3 -88 3 -3
85 c-3 80 -5 87 -34 117 -18 18 -41 33 -52 33 -16 0 -12 -7 22 -39 l43 -38 -3
-79 -3 -79 -74 -3 -75 -3 -83 83 -83 83 -83 -83 -82 -82 -73 0 -72 0 0 82 c0
81 0 83 37 120 32 32 34 38 17 38 -11 0 -34 -15 -52 -33z m389 -157 l70 -70
84 0 85 0 0 -88 0 -88 85 1 85 1 0 -82 0 -82 76 -77 76 -77 -76 -77 -76 -76 0
-83 0 -82 -85 0 -85 0 0 -85 0 -85 -82 0 -83 0 -75 -75 -76 -76 -78 76 -77 75
-79 0 -80 0 0 85 0 85 -90 0 -90 0 0 88 0 87 -70 68 c-39 38 -70 72 -70 76 0
3 32 38 70 76 l70 69 0 83 c0 46 3 83 8 84 4 0 43 2 87 2 l80 2 3 88 3 87 82
0 83 0 69 70 c38 39 73 70 77 70 5 0 40 -31 79 -70z m1664 0 l69 -69 85 -3 86
-3 3 -87 3 -87 27 1 c15 0 53 0 85 -1 l57 -1 0 -82 0 -83 75 -75 75 -75 -75
-74 -75 -75 0 -83 0 -83 -85 0 -85 0 0 -85 0 -85 -82 0 -83 0 -78 -77 -78 -77
-77 77 -77 77 -83 0 -82 0 0 85 0 85 -85 0 -85 0 0 83 0 83 -75 74 -75 74 75
77 75 77 0 81 c0 94 2 96 108 87 l61 -5 3 87 3 87 84 3 84 3 71 69 c39 39 73
70 76 70 3 0 37 -31 75 -70z m1670 0 l69 -70 83 0 83 0 0 -85 c0 -60 4 -85 13
-87 6 -1 46 -2 87 -2 l75 -1 3 -86 3 -85 69 -69 c39 -38 70 -73 70 -78 0 -5
-31 -40 -70 -79 l-70 -71 0 -83 0 -84 -90 0 -90 0 0 -85 0 -85 -79 0 -78 0
-78 -76 -77 -76 -77 76 -76 76 -83 0 -82 0 0 85 0 85 -85 0 -85 0 0 83 0 83
-75 74 -75 74 75 77 75 77 0 79 0 80 61 7 c33 3 72 3 85 0 l24 -6 0 91 0 91
88 0 87 1 70 69 c39 39 72 70 75 70 3 0 37 -31 75 -70z m1670 0 l69 -70 83 0
82 0 3 -87 3 -88 40 -1 c22 -1 61 -2 88 -3 l47 -1 0 -82 0 -83 72 -72 72 -73
-72 -73 -72 -72 0 -88 0 -87 -90 0 -90 0 0 -85 0 -85 -83 0 -83 0 -74 -75 -75
-75 -75 75 -75 75 -83 0 -82 0 0 85 0 84 -87 3 -88 3 -1 83 -1 83 -74 75 -73
74 73 74 73 74 2 82 1 82 87 1 88 2 0 88 0 87 83 0 83 0 69 70 c38 39 74 70
80 70 6 0 42 -31 80 -70z m-5425 -145 l0 -75 -75 0 -75 0 0 75 0 75 75 0 75 0
0 -75z m830 0 l0 -76 -72 3 -73 3 -3 59 c-4 85 -4 86 78 86 l70 0 0 -75z m840
0 l0 -75 -75 0 -75 0 0 75 0 75 75 0 75 0 0 -75z m830 0 l0 -75 -75 0 -75 0 0
75 0 75 75 0 75 0 0 -75z m838 -2 l3 -73 -76 0 -75 0 0 75 0 76 73 -3 72 -3 3
-72z m832 2 l0 -75 -75 0 -75 0 0 75 0 75 75 0 75 0 0 -75z m830 0 l0 -75 -75
0 -75 0 0 68 c0 38 3 72 7 75 3 4 37 7 75 7 l68 0 0 -75z m838 -2 l3 -73 -76
0 -75 0 0 75 0 76 73 -3 72 -3 3 -72z m-4745 -176 c42 -42 79 -77 84 -77 4 0
42 34 84 76 l76 76 76 3 77 3 0 -82 0 -82 -75 -74 c-41 -41 -75 -78 -75 -83 0
-4 34 -41 75 -82 l75 -75 0 -80 0 -80 -77 0 -78 0 -80 80 -80 80 -80 -80 -80
-80 -77 0 -78 0 0 79 0 78 80 79 80 79 -80 80 -80 80 0 77 0 77 48 3 c104 7
103 7 185 -75z m1663 2 c43 -43 83 -79 89 -79 5 0 43 34 84 76 l74 76 79 3 78
2 0 -81 0 -82 -75 -74 c-41 -41 -75 -78 -75 -83 0 -5 34 -43 75 -84 l75 -74 0
-80 0 -79 -77 0 -78 0 -80 80 -81 80 -79 -80 -80 -80 -77 0 -78 0 0 84 c0 46
3 86 8 88 4 2 38 36 77 76 l69 72 -77 78 -77 77 0 77 0 77 57 3 c31 2 64 4 73
5 9 1 52 -34 96 -78z m1674 -4 l80 -80 78 77 77 77 80 3 80 3 3 -77 3 -78 -82
-81 -81 -82 81 -81 81 -81 0 -78 0 -77 -77 0 -78 0 -81 81 -82 82 -79 -82 -79
-81 -77 0 -77 0 0 82 0 83 77 77 78 78 -80 83 -80 82 3 76 3 76 75 -2 75 -1
79 -79z m-3177 -506 l73 -72 82 1 82 1 0 -89 0 -90 90 0 90 0 0 -84 0 -85 70
-68 c38 -37 70 -72 70 -78 0 -5 -32 -41 -70 -79 l-70 -69 0 -84 0 -83 -90 0
-90 0 0 -90 0 -90 -83 0 -83 0 -69 -70 c-38 -38 -73 -70 -77 -70 -4 0 -38 32
-77 70 l-69 70 -86 0 -86 0 0 90 0 90 -90 0 -90 0 0 84 0 84 -70 73 -71 73 58
60 c32 33 64 64 71 69 8 5 12 37 12 97 l0 90 90 0 90 0 0 90 0 90 88 0 87 0
69 70 c38 39 71 70 73 70 2 0 36 -32 76 -71z m1666 0 l74 -71 83 0 84 0 0 -89
0 -89 90 0 90 0 0 -86 0 -86 70 -71 c39 -38 70 -73 70 -76 0 -3 -32 -37 -70
-76 -69 -69 -70 -70 -71 -125 -2 -116 8 -105 -91 -108 l-88 -3 0 -89 0 -90
-83 0 -82 0 -72 -70 c-39 -38 -75 -70 -80 -70 -5 0 -40 32 -78 70 l-69 70 -83
0 -82 0 -3 88 -3 87 -87 3 -88 3 0 82 0 83 -70 69 c-38 38 -70 74 -70 80 0 5
32 41 70 79 l70 70 0 83 0 83 90 0 90 0 0 91 0 90 81 -3 80 -3 72 72 c40 40
74 73 77 73 3 0 38 -32 79 -71z m1668 -1 l72 -71 83 -1 83 -1 3 -87 3 -88 84
0 85 0 0 -82 0 -83 75 -75 75 -75 -75 -75 -75 -74 0 -83 0 -83 -85 0 -85 0 0
-90 0 -90 -87 0 -88 0 -72 -72 -73 -72 -73 72 -72 72 -82 0 -82 0 -3 88 -3 87
-87 3 -88 3 0 82 0 83 -70 69 c-38 38 -70 74 -70 80 0 6 32 42 70 80 l70 69 0
83 0 82 88 3 87 3 3 87 3 87 80 -2 79 -2 72 73 c40 39 75 72 78 72 2 0 37 -32
77 -72z m-4589 -145 l3 -73 -76 0 -75 0 0 75 0 76 73 -3 72 -3 3 -72z m832 3
l0 -76 -75 0 -75 0 0 68 c0 38 2 71 5 74 3 3 37 6 75 7 l70 2 0 -75z m838 -4
l3 -72 -76 0 -75 0 0 75 0 75 73 -3 72 -3 3 -72z m832 3 l0 -75 -75 0 -75 0 0
68 c0 38 3 72 7 75 3 4 37 7 75 7 l68 0 0 -75z m838 -2 l3 -73 -76 0 -75 0 0
75 0 76 73 -3 72 -3 3 -72z m830 0 l3 -73 -76 0 -75 0 0 68 c0 38 3 72 7 76 4
4 37 6 73 4 l65 -3 3 -72z m832 2 l0 -75 -75 0 -75 0 0 68 c0 38 3 72 7 75 3
4 37 7 75 7 l68 0 0 -75z m838 -2 l3 -73 -76 0 -75 0 0 75 0 76 73 -3 72 -3 3
-72z m-5573 -183 l80 -79 80 79 80 80 77 0 78 0 0 -77 0 -78 -80 -80 -80 -80
80 -80 80 -80 0 -77 0 -78 -80 0 -81 0 -72 75 c-40 41 -77 75 -83 75 -5 0 -43
-34 -84 -75 l-74 -75 -78 0 -78 0 0 78 0 78 75 77 c41 42 75 79 75 81 0 3 -34
40 -76 83 l-76 77 -1 78 -2 78 80 0 80 0 80 -80z m1664 0 l77 -80 79 80 80 80
82 0 83 0 0 -76 0 -76 -81 -84 -81 -83 81 -81 81 -80 0 -75 0 -75 -82 0 -83 0
-77 77 -78 77 -41 -39 c-23 -22 -58 -57 -77 -77 l-34 -38 -84 0 -84 0 0 76 0
77 79 81 80 81 -80 81 -79 82 0 76 0 76 81 0 82 0 76 -80z m1666 0 l80 -80 80
80 80 80 77 0 78 0 0 -80 0 -79 -75 -75 c-41 -41 -75 -79 -75 -83 0 -4 34 -42
75 -83 l75 -75 0 -77 0 -78 -78 0 -78 0 -74 75 c-41 41 -78 75 -82 75 -5 0
-41 -34 -82 -75 l-74 -75 -81 0 -81 0 0 77 0 78 80 80 80 80 -80 80 -80 80 0
77 0 78 77 0 78 0 80 -80z m1670 0 l80 -80 80 80 80 80 77 0 78 0 0 -78 0 -78
-75 -74 c-41 -41 -75 -79 -75 -85 0 -6 34 -44 75 -85 l75 -74 0 -78 0 -78 -78
0 -78 0 -74 75 c-41 41 -79 75 -85 75 -6 0 -44 -34 -85 -75 l-74 -75 -78 0
-78 0 0 78 0 78 75 74 c41 41 75 79 75 85 0 6 -34 44 -75 85 l-75 74 0 78 0
78 77 0 78 0 80 -80z m-4687 -580 l82 0 0 -85 0 -85 85 0 85 0 0 -82 0 -83 77
-77 78 -78 -78 -78 -77 -77 0 -83 0 -82 -85 0 -85 0 0 -85 0 -85 -83 0 -83 0
-74 -75 -75 -75 -75 75 -75 75 -83 0 -82 0 0 85 0 85 -90 0 -90 0 0 87 0 88
-72 72 -72 73 64 67 c36 37 68 69 73 71 4 2 7 44 7 93 l0 89 90 0 90 0 0 85 0
85 81 0 82 0 76 75 76 74 75 -74 75 -75 83 0z m1509 75 l73 -75 85 0 85 0 0
-85 0 -85 85 0 85 0 0 -83 0 -84 70 -72 c39 -40 70 -76 70 -80 0 -3 -31 -38
-70 -76 l-70 -69 0 -88 0 -88 -85 0 -85 0 0 -85 0 -85 -88 0 -88 0 -69 -70
c-38 -38 -73 -70 -76 -70 -4 0 -39 32 -78 70 l-71 70 -85 0 -85 0 0 85 0 85
-85 0 -85 0 0 86 0 87 -76 74 -77 74 77 77 76 77 0 83 0 82 85 0 85 0 0 85 0
85 83 0 84 0 74 75 c41 41 76 75 78 75 2 0 37 -34 78 -75z m1665 0 l75 -75 81
0 82 0 0 -85 0 -85 90 0 90 0 0 -89 c0 -84 1 -89 28 -112 15 -14 47 -46 72
-72 l44 -47 -72 -73 -72 -72 0 -88 0 -87 -90 0 -90 0 0 -85 0 -85 -83 0 -83 0
-69 -70 c-38 -38 -72 -70 -76 -70 -3 0 -38 32 -78 70 l-71 70 -85 0 -85 0 0
85 0 85 -85 0 -85 0 0 86 0 87 -77 73 -78 74 78 78 77 77 0 83 0 82 85 0 85 0
0 85 0 85 83 0 83 0 74 75 c41 41 75 75 76 75 1 0 35 -34 76 -75z m1826 -75
l82 0 0 -85 0 -85 90 0 90 0 0 -87 0 -88 72 -72 72 -73 -71 -72 -72 -73 -3
-85 -3 -85 -87 -3 -88 -3 0 -84 0 -85 -83 0 -83 0 -74 -75 -75 -75 -75 75 -75
75 -83 0 -82 0 0 85 0 84 -87 3 -88 3 -3 85 -3 85 -72 73 -71 72 73 74 73 74
2 83 1 84 88 3 87 3 0 84 0 85 83 0 83 0 74 75 75 75 75 -75 75 -75 83 0z
m-5578 -75 l0 -75 -75 0 -75 0 0 75 0 75 75 0 75 0 0 -75z m830 0 l0 -76 -72
3 -73 3 -3 73 -3 72 76 0 75 0 0 -75z m838 3 l-3 -73 -72 -3 -73 -3 0 76 0 75
75 0 76 0 -3 -72z m832 -3 l0 -75 -75 0 -75 0 0 75 0 75 75 0 75 0 0 -75z
m838 3 l-3 -73 -73 -3 -72 -3 0 76 0 75 76 0 75 0 -3 -72z m832 -3 l0 -75 -75
0 -75 0 0 75 0 75 75 0 75 0 0 -75z m830 0 l0 -76 -72 3 -73 3 -3 73 -3 72 76
0 75 0 0 -75z m840 0 l0 -75 -75 0 -75 0 0 75 0 75 75 0 75 0 0 -75z m-4745
-175 l80 -80 80 80 80 80 77 0 78 0 0 -84 c0 -82 -1 -84 -32 -113 -18 -16 -53
-50 -78 -76 l-44 -47 77 -78 77 -77 0 -83 0 -82 -74 0 -74 0 -81 82 c-45 45
-83 79 -85 77 -3 -2 -41 -39 -84 -81 l-80 -78 -76 0 -76 0 0 82 0 83 80 80 79
80 -79 80 -80 80 0 77 0 78 77 0 78 0 80 -80z m1667 -1 l80 -82 82 82 81 81
78 0 77 0 0 -80 0 -80 -75 -76 c-41 -42 -75 -79 -75 -83 0 -3 34 -40 75 -81
l75 -74 0 -83 0 -83 -76 0 -76 0 -80 80 c-44 44 -83 80 -86 80 -4 0 -43 -36
-87 -80 l-80 -80 -72 0 -73 0 0 82 0 83 77 77 78 78 -78 78 -77 77 0 83 0 82
76 0 76 0 80 -81z m1666 -1 l82 -83 82 83 83 82 78 0 77 0 0 -77 0 -78 -82
-83 -81 -82 82 -82 82 -82 -3 -76 -3 -75 -74 -3 -75 -3 -83 83 -83 83 -82 -82
-81 -83 -74 0 -73 0 0 82 0 83 77 77 78 78 -78 78 -77 77 0 83 0 82 73 0 74 0
81 -82z m-3173 -508 l69 -70 83 0 83 0 0 -85 c0 -96 -10 -87 105 -89 l70 -1 3
-85 3 -85 71 -72 72 -72 -77 -80 -77 -79 0 -81 0 -81 -85 0 -85 0 0 -85 0 -85
-82 0 -83 0 -75 -75 -76 -76 -74 76 -75 75 -82 0 -83 0 0 85 0 85 -90 0 -90 0
0 90 c0 60 -4 92 -12 97 -7 5 -40 37 -73 71 l-59 62 71 73 72 72 3 84 3 84 85
2 85 1 3 87 3 87 82 0 83 0 69 70 c38 39 74 70 80 70 6 0 42 -31 80 -70z
m1670 0 l69 -70 83 0 82 0 3 -87 3 -88 85 0 85 0 0 -82 0 -82 75 -76 75 -75
-78 -78 -77 -77 0 -83 0 -82 -85 0 -85 0 0 -85 0 -85 -82 0 -83 0 -77 -77 -78
-78 -78 78 -77 77 -82 0 -82 0 0 73 c0 39 0 78 0 85 -1 8 -25 12 -86 12 l-85
0 0 83 0 83 -70 69 c-38 38 -70 74 -70 80 0 6 31 42 70 80 l69 69 3 85 3 86
85 0 85 0 3 88 3 87 82 0 83 0 69 70 c38 39 74 70 80 70 6 0 42 -31 80 -70z
m1663 0 l71 -70 86 0 85 0 0 -89 0 -90 85 3 85 3 0 -85 0 -84 75 -75 75 -76
-75 -75 -75 -76 0 -83 0 -83 -85 0 -85 0 -1 -57 c-1 -32 0 -70 1 -85 l2 -28
-85 0 -84 0 -77 -77 -76 -77 -78 77 -77 77 -83 0 -82 0 0 85 0 85 -85 0 -85 0
0 83 0 83 -75 74 -75 75 75 75 74 75 3 85 3 85 85 0 85 0 3 88 3 87 82 0 83 0
69 70 c38 39 72 70 75 70 4 0 39 -31 78 -70z m-4588 -145 l0 -75 -75 0 -75 0
0 75 0 75 75 0 75 0 0 -75z m830 0 l0 -75 -75 0 -75 0 0 68 c0 38 3 72 7 75 3
4 37 7 75 7 l68 0 0 -75z m840 0 l0 -75 -75 0 -75 0 0 75 0 75 75 0 75 0 0
-75z m830 0 l0 -75 -75 0 -75 0 0 75 0 75 75 0 75 0 0 -75z m835 0 l0 -70 -72
-3 -73 -3 0 76 0 76 73 -3 72 -3 0 -70z m835 0 l0 -75 -75 0 -75 0 0 75 0 75
75 0 75 0 0 -75z m830 0 l0 -75 -75 0 -75 0 0 68 c0 38 3 72 7 75 3 4 37 7 75
7 l68 0 0 -75z m838 -2 l3 -73 -76 0 -75 0 0 75 0 76 73 -3 72 -3 3 -72z
m-5576 -180 l78 -78 79 79 78 78 79 1 79 1 3 -78 3 -78 -81 -81 -81 -81 80
-80 81 -81 0 -78 0 -77 -77 0 -78 0 -82 82 -83 83 -83 -83 -82 -82 -78 0 -77
0 0 77 0 78 82 82 83 83 -78 78 -77 77 0 81 0 80 77 -3 77 -2 78 -78z m1670 0
l78 -78 83 81 82 81 75 -1 75 -1 3 -75 3 -75 -81 -80 c-44 -44 -80 -83 -80
-86 0 -4 34 -40 75 -80 l75 -72 0 -84 0 -83 -77 0 -78 0 -80 80 -80 80 -80
-80 -80 -80 -77 0 -78 0 0 77 0 78 82 82 82 82 -82 82 -82 82 0 72 c0 39 2 74
5 76 2 3 39 4 82 2 l77 -2 78 -78z m1669 1 l79 -78 85 83 c58 57 90 81 101 77
8 -3 40 -6 70 -6 l54 0 0 -79 0 -79 -75 -73 c-41 -40 -75 -77 -75 -82 0 -5 34
-42 75 -82 l75 -73 0 -81 0 -81 -77 0 -78 0 -80 80 -80 80 -80 -80 -80 -80
-77 0 -78 0 0 77 0 78 81 81 80 81 -80 81 -81 82 0 73 c0 41 3 77 7 80 3 4 40
5 81 2 l75 -4 78 -77z m1610 50 c17 -16 53 -50 79 -76 26 -27 51 -48 54 -48 4
0 41 34 83 75 81 78 89 81 206 84 l27 1 0 -82 0 -83 -80 -80 -80 -80 80 -80
80 -80 0 -77 0 -78 -77 0 -78 0 -80 80 -81 80 -79 -80 -80 -80 -77 0 -78 0 0
82 0 83 77 77 78 78 -78 78 -77 77 0 76 c0 42 2 78 5 81 3 2 37 4 75 3 63 -2
74 -5 101 -31z m-4795 -555 l71 -70 84 -2 84 -2 3 -87 3 -88 84 0 85 0 0 -82
0 -83 75 -75 75 -75 -75 -75 -75 -74 0 -83 0 -83 -85 0 -84 0 -3 -87 -3 -88
-85 -3 -85 -3 -72 -72 -73 -71 -72 71 -73 72 -85 3 -85 3 -3 88 -3 87 -84 0
-85 0 0 82 0 83 -75 75 -75 75 75 75 75 74 0 83 0 83 85 0 84 0 3 88 3 87 84
1 84 2 71 71 c39 39 73 71 76 71 2 0 36 -32 76 -71z m1666 1 l71 -70 83 0 84
0 0 -90 0 -90 90 0 90 0 0 -83 0 -83 61 -60 c93 -91 92 -85 10 -168 l-71 -71
0 -83 0 -82 -90 0 -90 0 0 -90 0 -90 -82 0 -83 0 -72 -72 -73 -72 -73 72 -72
72 -88 0 -87 0 0 90 0 90 -85 0 -85 0 0 81 0 81 -70 71 c-38 40 -71 75 -72 79
-2 4 30 41 70 83 l74 75 -4 80 -3 80 87 0 87 0 3 88 3 87 85 3 85 3 70 69 c38
39 71 70 73 70 2 0 35 -31 74 -70z m1671 0 l71 -70 83 0 83 0 0 -90 0 -90 90
0 90 0 0 -85 0 -85 70 -68 c39 -38 70 -73 70 -78 0 -5 -31 -41 -70 -79 l-70
-69 0 -83 0 -83 -90 0 -90 0 0 -90 0 -90 -82 0 -83 0 -72 -72 -73 -72 -62 59
c-34 33 -68 66 -75 73 -9 7 -45 12 -99 12 l-84 0 0 90 0 90 -90 0 -90 0 0 85
0 85 -70 72 -71 72 70 70 70 71 3 85 3 85 87 3 87 3 3 87 3 87 85 3 85 3 70
69 c38 39 71 70 73 70 2 0 36 -31 75 -70z m1662 0 l69 -69 85 -3 86 -3 3 -87
3 -88 84 0 85 0 0 -83 0 -83 75 -74 75 -74 -75 -77 -75 -77 0 -81 0 -81 -85 0
-85 0 0 -90 0 -90 -88 0 -88 0 -68 -70 c-38 -38 -71 -70 -75 -70 -4 0 -38 32
-76 70 l-69 70 -83 0 -83 0 0 90 0 90 -90 0 -90 0 0 83 0 83 -70 69 c-38 38
-70 74 -70 80 0 5 32 41 70 79 l70 70 0 83 0 83 90 0 90 0 0 91 0 91 80 -4 80
-3 72 72 c40 40 75 73 78 73 3 0 37 -31 75 -70z m-5417 -147 l3 -73 -76 0 -75
0 0 68 c0 38 3 72 7 76 4 4 37 6 73 4 l65 -3 3 -72z m830 0 l3 -73 -76 0 -75
0 0 68 c0 38 3 72 7 76 4 4 37 6 73 4 l65 -3 3 -72z m832 -1 l5 -72 -75 0 -75
0 3 62 c4 90 2 88 74 85 l63 -2 5 -73z m838 1 l3 -73 -76 0 -75 0 0 69 c0 46
4 71 13 75 6 2 39 4 72 3 l60 -2 3 -72z m830 -1 l3 -73 -73 3 -73 3 -3 50 c-5
92 -1 96 76 93 l67 -3 3 -73z m826 72 c12 -5 16 -21 16 -75 l0 -69 -75 0 -75
0 0 68 c0 38 3 72 7 75 8 9 106 9 127 1z m844 -71 l3 -73 -76 0 -75 0 0 69 c0
46 4 71 13 75 6 3 39 4 72 3 l60 -2 3 -72z m832 2 l0 -75 -70 0 -70 0 0 68 c0
38 3 72 7 75 3 4 35 7 70 7 l63 0 0 -75z m-4735 -185 l80 -80 80 80 80 80 77
0 78 0 0 -77 0 -78 -80 -80 -80 -80 80 -80 80 -80 0 -77 0 -78 -78 0 -77 0
-80 80 -80 79 -80 -79 -80 -80 -78 0 -77 0 0 78 0 78 75 74 c41 41 75 79 75
85 0 6 -34 44 -75 85 l-75 74 0 78 0 78 77 0 78 0 80 -80z m1665 5 c41 -41 79
-75 85 -75 6 0 44 34 85 75 l74 75 78 0 78 0 0 -77 0 -78 -80 -80 -80 -80 80
-80 80 -80 0 -77 0 -78 -78 0 -78 0 -76 75 c-42 41 -80 75 -85 75 -5 0 -42
-34 -83 -75 l-74 -75 -83 0 -83 0 0 78 1 77 79 79 80 80 -81 82 -80 83 2 68
c1 37 4 71 6 76 2 4 39 7 81 7 l77 0 75 -75z m1666 0 c40 -41 77 -75 81 -75 5
0 42 34 83 75 l75 76 80 -3 80 -3 3 -73 3 -74 -80 -81 -81 -81 33 -35 c17 -19
52 -55 76 -80 44 -45 45 -48 49 -123 l5 -78 -84 0 -84 0 -77 77 -78 77 -46
-44 c-26 -25 -60 -60 -77 -77 -28 -32 -31 -33 -113 -33 l-84 0 0 77 0 78 80
80 80 80 -80 80 -80 80 0 77 0 78 82 0 81 0 73 -75z m-3018 -585 l82 0 0 -85
0 -85 85 0 85 0 0 -82 0 -83 77 -77 78 -78 -78 -78 -77 -77 0 -83 0 -82 -85 0
-85 0 0 -85 0 -85 -83 0 -83 0 -74 -75 -75 -75 -75 75 -75 75 -83 0 -82 0 0
85 0 84 -87 3 -88 3 -3 85 -3 85 -72 73 -71 72 72 73 72 72 0 88 0 87 90 0 90
0 0 85 0 85 83 0 82 1 75 74 74 75 76 -75 75 -75 83 0z m1512 75 l74 -75 83 0
83 0 0 -85 0 -85 85 0 85 0 0 -82 0 -83 77 -77 78 -78 -78 -78 -77 -77 0 -83
0 -82 -85 0 -85 0 0 -85 0 -85 -83 0 -83 0 -74 -75 -75 -75 -75 75 -75 74 -85
3 -85 3 0 83 0 82 -87 0 -88 0 0 85 0 86 -70 72 c-38 40 -70 77 -70 82 0 6 32
41 70 79 l70 69 0 83 0 84 85 0 85 0 2 68 c0 37 1 75 0 85 -2 15 8 17 81 17
l84 0 74 75 c40 41 76 75 79 75 3 0 39 -34 80 -75z m1667 0 l76 -75 83 0 83 0
-2 -82 -1 -83 87 -3 87 -3 0 -82 0 -82 70 -73 c39 -40 70 -76 70 -80 0 -4 -31
-39 -70 -77 l-70 -69 0 -88 0 -88 -88 0 -87 0 1 -85 2 -85 -87 0 -86 -1 -73
-73 -74 -72 -73 73 -73 73 -86 0 -86 0 0 85 0 85 -85 0 -85 0 0 86 0 85 -76
76 -75 76 75 76 76 76 0 83 0 82 85 0 85 0 0 85 0 85 83 0 83 0 74 75 c41 41
76 75 78 75 2 0 38 -34 79 -75z m-4589 -147 l-3 -73 -72 -3 -73 -3 0 76 0 75
75 0 76 0 -3 -72z m832 -3 l0 -75 -75 0 -75 0 0 75 0 75 75 0 75 0 0 -75z
m832 0 l-4 -75 -68 0 -68 0 -4 75 -3 75 75 0 75 0 -3 -75z m838 0 l0 -75 -75
0 -75 0 0 75 0 75 75 0 75 0 0 -75z m830 0 l0 -75 -70 0 -70 0 -2 35 c-1 19
-2 50 -3 68 -2 17 -1 35 2 40 2 4 35 7 74 7 l69 0 0 -75z m838 3 l-3 -73 -72
-3 -73 -3 0 76 0 75 75 0 76 0 -3 -72z m832 -3 l0 -75 -75 0 -75 0 0 75 0 75
75 0 75 0 0 -75z m830 0 l0 -75 -70 0 -70 0 0 75 0 75 70 0 70 0 0 -75z
m-5572 -177 l81 -83 84 83 83 83 75 -3 74 -3 3 -74 3 -75 -83 -83 -83 -83 83
-83 83 -83 -3 -75 -3 -74 -74 -3 -75 -3 -83 83 -83 83 -83 -83 -83 -83 -75 3
-74 3 -3 74 -3 75 83 83 83 83 -83 83 -82 82 0 78 0 77 79 0 78 0 81 -82z
m1668 1 l81 -80 80 80 80 81 77 0 76 0 0 -82 0 -83 -77 -77 -78 -78 78 -78 77
-77 0 -83 0 -82 -72 0 -73 0 -82 82 -83 83 -83 -83 -82 -82 -78 0 -77 0 0 83
0 83 75 73 c41 41 75 79 75 85 0 6 -34 45 -75 86 l-75 74 0 78 0 78 77 0 78 0
81 -81z m1669 1 l80 -80 80 80 80 80 77 0 78 0 0 -84 c0 -82 -1 -85 -32 -113
-18 -17 -53 -51 -78 -77 l-44 -46 77 -78 77 -77 0 -83 0 -82 -72 0 -73 1 -84
80 -83 81 -35 -34 c-20 -18 -56 -54 -82 -80 l-46 -48 -77 0 -78 0 0 83 0 83
75 74 c41 41 75 79 75 84 0 6 -34 43 -75 83 l-75 72 0 81 0 80 77 0 78 0 80
-80z m1667 0 l82 -81 81 81 80 80 78 0 77 0 0 -77 0 -78 -81 -81 -82 -82 82
-79 82 -79 -3 -79 -3 -80 -74 -3 -75 -3 -83 83 -83 83 -83 -83 -82 -82 -73 0
-72 0 0 82 0 83 77 77 78 78 -78 78 -77 77 0 83 0 82 75 0 74 0 83 -80z
m-4847 -510 l69 -69 85 -3 86 -3 5 -85 5 -86 80 0 80 -1 3 -84 3 -84 74 -75
75 -75 -75 -75 -75 -74 0 -83 0 -83 -85 0 -85 0 0 -85 0 -85 -82 0 -83 0 -77
-77 -78 -78 -78 78 -77 77 -83 0 -82 0 0 85 0 85 -85 0 -85 0 0 82 0 83 -75
75 -74 75 74 78 75 77 0 79 c0 54 4 80 13 83 6 2 44 4 82 3 l70 -1 5 86 5 85
86 3 85 3 69 69 c38 39 72 70 75 70 3 0 37 -31 75 -70z m1670 0 l69 -70 83 0
82 0 3 -87 3 -88 85 0 85 0 3 -85 3 -85 72 -72 71 -73 -59 -62 c-33 -34 -66
-66 -72 -71 -9 -5 -13 -37 -13 -97 l0 -90 -90 0 -90 0 0 -85 0 -85 -84 0 -83
0 -73 -76 -72 -76 -77 76 -76 76 -83 0 -82 0 0 85 0 85 -85 0 -85 0 0 81 0 81
-76 78 -76 78 74 77 73 76 5 82 5 82 83 0 82 -1 0 88 0 88 84 0 83 0 69 70
c38 38 74 70 79 70 6 0 42 -31 80 -70z m1670 0 l69 -70 83 0 83 0 0 -85 c0
-74 2 -85 18 -86 9 -1 49 -3 87 -4 l70 -3 3 -84 3 -83 72 -72 71 -73 -72 -73
-72 -72 0 -88 0 -87 -90 0 -90 0 0 -85 0 -85 -83 0 -83 0 -74 -75 -75 -75 -75
75 -75 75 -83 0 -82 0 0 85 0 84 -87 3 -88 3 -1 84 -2 83 -73 74 -73 74 74 75
75 76 -3 78 -4 79 49 6 c26 4 67 4 91 1 l42 -5 0 90 0 90 83 0 83 0 69 70 c38
39 74 70 80 70 6 0 42 -31 80 -70z m1667 0 l73 -70 83 0 82 0 0 -88 0 -89 83
1 82 1 5 -83 5 -83 75 -75 74 -74 -77 -78 -77 -77 0 -83 0 -82 -85 0 -85 0 0
-85 0 -85 -82 0 -83 0 -76 -76 -76 -76 -76 76 -76 76 -80 0 -81 0 0 85 0 85
-90 0 -90 0 0 86 0 86 -70 70 c-38 39 -70 74 -70 77 0 4 31 38 70 76 l69 69 3
85 3 85 70 2 c39 1 78 2 88 3 15 1 17 12 17 86 l0 85 83 0 83 0 69 70 c38 39
73 70 76 70 4 0 40 -31 81 -70z m-5424 -147 l3 -73 -76 0 -75 0 0 75 0 76 73
-3 72 -3 3 -72z m832 2 l0 -75 -75 0 -75 0 0 75 0 75 75 0 75 0 0 -75z m832 0
l3 -75 -72 0 -73 0 0 75 0 75 69 0 69 0 4 -75z m838 0 l0 -75 -75 0 -75 0 0
75 0 75 75 0 75 0 0 -75z m830 0 l0 -76 -72 3 c-81 3 -83 5 -72 96 l5 52 70 0
69 0 0 -75z m840 0 l0 -75 -75 0 -75 0 0 75 0 75 75 0 75 0 0 -75z m830 0 l0
-75 -75 0 -75 0 0 75 0 75 75 0 75 0 0 -75z m830 0 l0 -75 -70 0 -70 0 0 75 0
75 70 0 70 0 0 -75z m-4739 -181 c43 -43 81 -76 83 -73 3 2 39 37 80 77 l74
74 69 0 c37 0 74 -1 81 -1 8 -1 12 -24 12 -79 l0 -78 -75 -74 c-41 -41 -75
-79 -75 -85 0 -6 34 -44 75 -85 l75 -74 0 -78 0 -78 -77 0 -78 0 -80 80 -80
80 -80 -80 -80 -80 -77 0 -78 0 0 84 0 84 38 34 c20 19 55 54 77 77 l39 41
-77 78 -77 77 0 81 0 80 77 -2 76 -3 78 -77z m1669 1 l80 -80 79 79 78 78 79
1 79 1 3 -80 3 -79 -81 -79 -81 -80 81 -81 80 -80 0 -78 0 -77 -77 0 -78 0
-82 82 -83 83 -83 -83 -83 -83 -75 3 -74 3 -3 73 -3 73 83 85 82 84 -79 80
-79 79 -4 66 c-2 35 -2 70 1 77 3 9 28 13 80 13 l77 0 80 -80z m1671 -1 l79
-79 79 79 79 79 79 1 78 0 -2 -79 -2 -78 -77 -78 -78 -79 82 -84 83 -84 -3
-74 -3 -73 -76 -3 -75 -3 -82 83 -82 83 -83 -83 -82 -82 -78 0 -77 0 0 77 0
78 83 83 82 83 -82 81 -83 81 0 72 c0 41 4 75 10 77 5 2 42 2 81 2 l71 -1 79
-79z m-3186 -504 l69 -69 85 -3 86 -3 3 -87 3 -88 84 0 85 0 0 -81 0 -81 77
-79 77 -80 -72 -72 -72 -72 0 -82 0 -82 -87 -3 -88 -3 -2 -85 -1 -85 -84 -3
-83 -3 -72 -72 -73 -71 -72 71 -73 72 -85 3 -85 3 -3 88 -3 87 -84 0 -85 0 0
81 0 81 -77 79 -77 80 72 72 72 72 0 83 0 82 90 0 90 0 0 90 0 90 83 0 82 0
70 70 c39 38 72 70 75 70 3 0 37 -31 75 -70z m1671 -1 l71 -71 84 -1 84 -2 3
-87 3 -88 84 0 85 0 0 -82 0 -83 77 -77 78 -78 -73 -73 -72 -72 0 -82 0 -82
-87 -3 -88 -3 -3 -87 -3 -88 -82 0 -83 0 -69 -70 c-38 -38 -74 -70 -79 -70 -5
0 -40 32 -77 70 l-69 70 -85 0 -85 0 0 90 0 90 -85 0 -85 0 -1 53 c-1 28 0 64
0 78 2 19 -15 42 -73 100 -42 41 -76 79 -76 84 0 6 32 42 70 80 l70 69 0 83 0
83 85 0 c47 0 85 3 86 8 0 4 1 43 2 87 l2 80 83 1 84 1 71 72 c40 39 74 71 77
71 2 0 37 -32 76 -71z m1669 1 l69 -69 85 -3 c98 -3 88 9 90 -115 l1 -63 85 0
85 0 0 -82 0 -83 75 -75 76 -76 -71 -71 -70 -71 0 -86 0 -86 -90 0 -90 0 0
-90 0 -90 -85 0 -85 0 -71 -70 c-38 -38 -73 -70 -77 -70 -4 1 -38 32 -77 70
l-70 70 -82 0 -83 0 0 90 0 90 -90 0 -90 0 0 82 0 81 -70 73 c-38 39 -70 76
-70 81 0 5 32 40 70 78 l70 69 0 83 0 83 85 0 84 0 3 88 3 87 84 2 84 1 71 71
c39 39 73 71 76 71 3 0 37 -31 75 -70z m-4587 -147 l3 -73 -76 0 -75 0 0 75 0
76 73 -3 72 -3 3 -72z m830 0 l3 -73 -76 0 -75 0 0 68 c0 38 3 72 7 76 4 4 37
6 73 4 l65 -3 3 -72z m835 65 c-2 -5 -3 -37 -3 -73 l0 -65 -69 0 -69 0 -4 70
c-2 40 1 72 7 75 16 7 140 1 138 -7z m835 -65 l3 -73 -76 0 -75 0 0 68 c0 38
3 72 7 76 4 4 37 6 73 4 l65 -3 3 -72z m832 2 l0 -76 -72 3 -73 3 -1 65 c-1
36 1 68 3 73 2 4 35 7 74 7 l69 0 0 -75z m838 -2 l3 -73 -76 0 -75 0 0 74 0
75 73 -2 72 -2 3 -72z m830 0 l3 -73 -76 0 -75 0 0 68 c0 38 3 72 7 76 4 4 37
6 73 4 l65 -3 3 -72z m832 2 l0 -75 -70 0 -70 0 0 75 0 75 70 0 70 0 0 -75z
m-5572 -180 c42 -41 79 -75 82 -75 4 0 40 34 81 75 l73 75 83 0 83 0 0 -76 0
-76 -80 -82 -80 -82 80 -79 80 -80 0 -77 0 -78 -77 0 -78 0 -80 80 -80 80 -80
-80 -80 -80 -77 0 -78 0 0 77 0 78 77 77 78 78 -83 83 -82 82 0 78 0 77 81 0
81 0 76 -75z m1667 -5 l80 -80 80 80 80 80 77 0 78 0 0 -77 0 -78 -77 -77 -78
-78 83 -83 82 -82 0 -78 0 -77 -81 0 -80 0 -76 75 c-41 41 -78 75 -82 75 -3 0
-40 -34 -81 -75 l-74 -75 -78 0 -78 0 0 79 0 79 77 76 78 76 -83 83 -82 82 0
78 0 77 77 0 78 0 80 -80z m1670 0 l80 -80 80 80 80 80 77 0 78 0 0 -77 0 -78
-77 -77 -77 -78 82 -84 82 -84 0 -76 0 -76 -81 0 c-65 0 -85 4 -98 18 -9 9
-45 44 -79 77 l-62 59 -78 -77 -77 -77 -83 0 -82 0 0 75 0 75 81 81 81 82 -81
81 -81 81 0 78 0 77 77 0 78 0 80 -80z m1670 0 l79 -79 80 79 81 80 77 0 78 0
0 -77 0 -78 -80 -80 -81 -81 82 -79 82 -80 1 -77 1 -78 -80 0 -80 0 -79 79
-79 80 -80 -80 -79 -79 -79 0 -79 0 0 78 0 78 75 74 c41 41 75 79 75 85 0 5
-34 43 -75 84 l-75 74 0 79 0 78 78 0 77 0 80 -80z m-4687 -580 l82 0 0 -85 0
-84 88 -3 87 -3 3 -85 3 -85 72 -72 71 -73 -71 -72 -72 -73 -3 -85 -3 -85 -87
-3 -88 -3 0 -84 0 -85 -83 0 -83 0 -74 -75 -75 -75 -75 75 -75 75 -83 0 -82 0
0 85 0 84 -87 3 -88 3 -3 85 -3 85 -72 73 -71 72 72 73 72 72 0 88 0 87 90 0
90 0 0 85 0 85 83 0 83 0 74 75 75 75 75 -75 75 -75 83 0z m1670 0 l82 0 0
-85 0 -85 85 0 85 0 0 -82 0 -83 77 -77 77 -78 -77 -76 -77 -76 0 -84 0 -84
-85 0 -85 0 0 -85 0 -85 -84 0 -85 0 -74 -74 -74 -74 -74 74 -73 74 -83 0 -83
0 0 85 0 84 -87 3 -88 3 -3 86 -3 85 -69 69 c-39 38 -70 72 -70 76 0 4 32 38
70 76 l70 70 0 86 0 87 90 0 90 0 0 85 0 85 80 0 80 0 77 75 78 75 75 -75 75
-75 83 0z m1670 0 l82 0 0 -85 0 -85 85 0 85 0 0 -82 0 -83 75 -75 74 -75 -74
-77 -75 -78 0 -85 0 -85 -85 0 -85 0 0 -85 0 -85 -85 0 -85 0 -72 -70 c-40
-38 -75 -70 -78 -70 -3 0 -37 32 -75 70 l-69 70 -88 0 -88 0 0 85 0 85 -85 0
-85 0 0 88 0 88 -70 69 c-38 38 -70 73 -70 78 0 4 32 39 70 76 l70 68 0 87 0
86 85 0 85 0 0 85 0 85 85 0 84 0 78 75 78 75 75 -75 75 -75 83 0z m1565 13
c5 -9 36 -13 95 -13 l87 0 0 -82 0 -83 88 -3 87 -3 0 -87 0 -87 72 -72 72 -73
-72 -73 -72 -72 0 -87 0 -87 -87 -3 -88 -3 0 -83 0 -82 -85 0 -86 0 -74 -75
-75 -75 -75 75 -75 75 -83 0 -82 0 0 85 0 85 -85 0 -85 0 0 82 0 83 -77 77
-78 78 78 78 77 77 0 83 0 82 85 0 85 0 0 85 0 85 83 0 83 0 74 75 74 75 65
-63 c36 -34 69 -68 74 -74z m-5483 -88 l0 -76 -72 3 -73 3 -3 73 -3 72 76 0
75 0 0 -75z m838 3 l-3 -73 -72 -3 -73 -3 0 76 0 75 75 0 76 0 -3 -72z m832
-3 l0 -75 -75 0 -75 0 0 75 0 75 75 0 75 0 0 -75z m830 0 l0 -75 -70 0 c-38 0
-70 3 -71 8 0 4 -1 37 -2 75 l-2 67 73 0 72 0 0 -75z m838 3 l-3 -73 -72 -3
-73 -3 0 76 0 75 75 0 76 0 -3 -72z m832 -3 l0 -76 -72 3 -73 3 -3 73 -3 72
76 0 75 0 0 -75z m838 3 l-3 -73 -72 -3 -73 -3 0 76 0 75 75 0 76 0 -3 -72z
m832 -3 l0 -75 -75 0 -75 0 0 75 0 75 75 0 75 0 0 -75z m-4743 -177 l82 -82
83 82 82 82 73 0 73 0 0 -82 0 -83 -77 -77 -77 -78 80 -82 79 -83 -3 -77 -4
-78 -71 0 -72 0 -82 82 -82 82 -85 -82 -84 -83 -74 3 -73 3 -3 75 -2 75 82 83
82 83 -82 82 -82 82 0 78 0 77 77 0 78 0 82 -82z m1669 1 l82 -82 79 82 80 81
76 0 77 0 0 -82 0 -83 -77 -77 -78 -78 78 -78 77 -77 0 -83 0 -82 -73 0 -72 0
-80 80 c-44 44 -83 80 -87 80 -5 0 -44 -36 -87 -80 l-79 -80 -76 0 -76 0 0 83
0 83 75 74 c41 41 75 78 75 82 0 3 -34 40 -75 80 l-75 73 0 83 0 82 77 0 78 0
81 -81z m1669 1 l80 -80 80 80 80 80 77 0 78 0 0 -81 0 -81 -56 -51 c-31 -29
-65 -65 -76 -80 l-21 -29 77 -77 76 -76 0 -83 0 -82 -77 0 -77 0 -78 80 c-43
44 -81 80 -85 80 -5 0 -43 -36 -86 -80 l-79 -80 -74 0 -74 0 0 83 0 83 75 74
c41 41 75 77 75 80 0 4 -34 41 -75 83 l-75 76 0 81 0 80 77 0 78 0 80 -80z
m-1358 -580 l82 0 3 -86 3 -86 74 0 c41 0 80 -2 88 -5 9 -4 13 -28 13 -87 l0
-82 70 -69 c39 -38 70 -73 70 -77 0 -4 -31 -38 -70 -76 l-70 -69 0 -86 0 -87
-90 0 -90 0 0 -85 0 -85 -72 -1 c-40 -1 -76 -1 -80 0 -4 0 -42 -33 -84 -74
l-78 -74 -77 74 -77 75 -81 0 -81 0 0 85 0 84 -87 3 -88 3 0 82 0 82 -75 76
-75 75 77 78 77 77 -2 80 -1 80 84 0 85 0 3 88 3 87 82 0 83 0 74 75 75 75 75
-75 75 -75 82 0z m-1822 70 l69 -70 83 0 83 0 0 -85 0 -85 63 -1 c124 -2 112
8 115 -90 l3 -85 69 -69 c39 -38 70 -73 70 -78 0 -4 -31 -40 -70 -78 l-70 -71
0 -84 0 -84 -90 0 -90 0 0 -85 0 -85 -79 0 -78 0 -77 -77 -77 -76 -77 76 -77
77 -83 0 -82 0 0 85 0 85 -85 0 -85 0 0 82 0 83 -75 75 -75 75 75 77 75 78 0
86 0 86 85 -4 85 -4 0 88 0 88 88 0 87 1 65 69 c36 37 70 69 75 69 6 1 42 -30
80 -69z m3340 0 l69 -70 83 0 82 0 3 -86 3 -86 85 -2 85 -1 3 -85 3 -85 72
-72 71 -73 -72 -73 -72 -72 0 -88 0 -87 -90 0 -90 0 0 -85 0 -85 -81 0 -81 0
-77 -75 -77 -75 -74 75 -74 75 -83 0 -83 0 0 85 0 85 -90 0 -90 0 0 87 0 88
-72 72 -72 73 71 73 72 72 3 85 3 85 85 0 85 1 3 87 3 87 82 0 83 0 69 70 c38
39 74 70 80 70 6 0 42 -31 80 -70z m-4595 -145 l0 -75 -75 0 -75 0 0 75 0 75
75 0 75 0 0 -75z m838 -2 l3 -73 -76 0 -75 0 0 75 0 76 73 -3 72 -3 3 -72z
m832 2 l0 -75 -75 0 -75 0 0 75 0 75 75 0 75 0 0 -75z m830 0 l0 -75 -70 0
-70 0 -1 30 c0 17 -1 48 -1 70 0 22 1 42 1 45 1 3 33 5 71 5 l70 0 0 -75z
m840 0 l0 -75 -75 0 -75 0 0 75 0 75 75 0 75 0 0 -75z m830 0 l0 -75 -75 0
-75 0 0 75 0 75 75 0 75 0 0 -75z m838 -2 l3 -73 -76 0 -75 0 0 75 0 76 73 -3
72 -3 3 -72z m832 2 l0 -75 -75 0 -75 0 0 75 0 75 75 0 75 0 0 -75z m-5593
-167 c102 -103 91 -103 188 -8 l84 81 68 -3 68 -3 3 -80 3 -80 -76 -75 c-41
-41 -75 -79 -75 -85 0 -5 34 -43 75 -84 l75 -74 0 -78 0 -79 -77 0 -78 0 -80
80 -80 80 -80 -80 -80 -80 -77 0 -78 0 0 78 0 79 75 74 c41 41 75 79 75 84 0
6 -34 44 -75 85 l-75 74 0 84 0 83 75 -2 75 -2 67 -69z m1679 -9 l84 -83 83
81 82 81 75 -2 75 -1 3 -78 3 -78 -82 -80 -82 -81 82 -82 81 -81 0 -78 0 -77
-77 0 -78 0 -81 81 -82 81 -80 -81 -80 -81 -76 0 -76 0 0 82 0 83 77 77 78 78
-78 78 -77 77 0 81 0 80 71 2 71 3 84 -82z m1671 -1 l82 -82 83 80 83 80 75 0
75 -1 3 -76 3 -75 -82 -83 -82 -82 81 -82 82 -82 0 -78 0 -77 -77 0 -78 0 -82
82 -83 82 -82 -82 -82 -83 -76 3 -75 3 -3 73 -3 74 83 84 82 85 -82 82 -82 82
0 71 c0 39 3 73 6 76 3 4 38 7 77 7 l72 1 82 -82z m1670 0 l83 -83 84 84 83
83 59 -3 c93 -4 89 0 87 -86 l-1 -76 -78 -78 -78 -79 80 -82 79 -83 -3 -77 -4
-78 -75 0 -75 0 -80 81 -80 81 -82 -81 -81 -81 -78 0 -77 0 0 77 0 78 80 80
81 81 -81 82 -80 82 0 73 c0 41 2 76 4 78 3 3 37 6 77 7 l73 3 83 -83z m-4838
-519 l66 -63 63 3 c101 4 102 3 102 -95 l0 -84 90 0 90 0 0 -86 0 -86 70 -70
c39 -39 70 -73 70 -76 0 -3 -31 -36 -70 -74 l-70 -69 0 -85 0 -84 -90 0 -90 0
0 -90 0 -90 -84 0 -85 0 -70 -70 c-39 -38 -74 -70 -77 -70 -4 0 -38 31 -76 70
l-69 70 -85 0 -84 0 0 90 0 90 -90 0 -90 0 0 84 0 85 -72 71 -71 71 34 36 c19
19 51 53 71 74 38 37 38 37 38 123 l0 86 90 0 90 0 0 91 0 90 85 -2 85 -2 72
71 c44 43 76 68 82 62 5 -5 39 -37 75 -71z m1656 11 l69 -69 85 -3 86 -3 3
-87 3 -88 84 0 85 0 0 -82 0 -83 75 -75 75 -75 -75 -75 -75 -74 0 -83 0 -83
-85 0 -85 0 0 -90 0 -90 -87 0 -88 0 -72 -72 -73 -72 -73 72 -72 72 -82 0 -82
0 -3 88 -3 87 -87 3 -88 3 0 82 0 83 -70 69 c-38 38 -70 74 -70 80 0 6 32 42
70 80 l70 69 0 83 0 83 90 0 90 0 0 91 0 90 81 -2 81 -2 71 71 c40 40 74 72
77 72 3 0 37 -31 75 -70z m1672 -2 l72 -72 83 0 83 -1 3 -87 3 -88 84 0 85 0
0 -82 0 -83 75 -75 75 -75 -75 -75 -75 -74 0 -83 0 -83 -85 0 -84 0 -3 -87 -3
-88 -85 -3 -85 -3 -72 -72 -73 -71 -72 71 -73 72 -85 3 -85 3 -3 87 -3 88 -84
0 -85 0 0 82 0 83 -75 75 -75 75 75 75 75 74 0 83 0 83 85 0 84 0 3 88 3 87
84 1 84 2 71 71 c39 39 73 71 76 71 2 0 37 -32 77 -72z m1668 2 l69 -70 83 0
c72 0 83 -2 84 -17 0 -10 2 -49 2 -88 l2 -70 88 -3 87 -3 0 -82 0 -83 70 -69
c39 -38 70 -74 70 -80 0 -6 -31 -42 -70 -80 l-70 -69 0 -83 0 -82 -87 -3 -88
-3 -1 -85 -1 -85 -84 -3 -84 -3 -72 -72 -73 -71 -73 72 -72 72 -88 0 -87 0 0
90 0 90 -85 0 -85 0 0 82 0 83 -75 75 -75 75 75 75 75 74 0 83 0 83 85 0 84 0
3 88 3 87 84 1 84 2 71 71 c39 39 73 71 76 71 3 0 37 -31 75 -70z m-5425 -144
l0 -76 -75 0 -75 0 0 68 c0 38 2 71 5 74 3 3 37 6 75 7 l70 2 0 -75z m838 -3
l3 -73 -76 0 -75 0 0 75 0 76 73 -3 72 -3 3 -72z m830 0 l3 -73 -76 0 -75 0 0
68 c0 38 3 72 7 76 4 4 37 6 73 4 l65 -3 3 -72z m832 0 l0 -73 -69 0 -69 0 -4
71 c-2 39 -1 73 2 75 2 3 35 4 72 3 l68 -2 0 -74z m838 0 l3 -73 -76 0 -75 0
0 68 c0 38 3 72 7 76 4 4 37 6 73 4 l65 -3 3 -72z m830 0 l3 -73 -76 0 -75 0
0 69 c0 46 4 71 13 75 6 2 39 4 72 3 l60 -2 3 -72z m840 0 l3 -73 -76 0 -75 0
0 75 0 76 73 -3 72 -3 3 -72z m830 0 l3 -73 -76 0 -75 0 0 68 c0 38 3 72 7 76
4 4 37 6 73 4 l65 -3 3 -72z m-4742 -183 l78 -81 81 81 80 80 78 0 77 0 0 -81
0 -82 -75 -73 c-41 -40 -75 -77 -75 -82 0 -4 34 -41 75 -81 l75 -73 0 -79 0
-79 -78 0 -78 0 -74 75 c-41 41 -78 75 -82 75 -5 0 -41 -34 -82 -75 l-74 -75
-81 0 -81 0 0 77 0 78 80 80 80 80 -80 80 -80 80 0 77 0 78 79 0 79 0 78 -80z
m1669 0 l80 -80 80 80 80 80 77 0 78 0 0 -80 0 -80 -75 -74 c-41 -40 -75 -78
-75 -83 0 -4 34 -42 75 -83 l75 -74 0 -78 0 -78 -78 0 -78 0 -74 75 c-41 41
-79 75 -85 75 -6 0 -44 -34 -85 -75 l-74 -75 -78 0 -78 0 0 77 0 78 80 80 80
80 -80 80 -80 80 0 77 0 78 77 0 78 0 80 -80z m1670 0 l80 -80 80 80 80 80 77
0 78 0 0 -77 0 -78 -80 -80 -80 -80 80 -80 80 -80 0 -77 0 -78 -77 0 -78 0
-80 80 -80 80 -80 -80 -80 -80 -77 0 -78 0 0 78 0 78 75 74 c41 41 75 79 75
85 0 6 -34 44 -75 85 l-75 74 0 78 0 78 77 0 78 0 80 -80z m-4435 -655 l0 -76
-72 3 -73 3 -3 73 -3 72 76 0 75 0 0 -75z m838 3 l-3 -73 -72 -3 -73 -3 0 76
0 75 75 0 76 0 -3 -72z m832 -3 l0 -75 -75 0 -75 0 0 75 0 75 75 0 75 0 0 -75z
m830 0 l0 -75 -69 0 c-39 0 -72 3 -74 8 -2 4 -2 37 1 75 l4 67 69 0 69 0 0
-75z m840 0 l0 -75 -75 0 -75 0 0 75 0 75 75 0 75 0 0 -75z m830 0 l0 -76 -72
3 -73 3 -3 73 -3 72 76 0 75 0 0 -75z m838 3 l-3 -73 -72 -3 -73 -3 0 76 0 75
75 0 76 0 -3 -72z m832 -3 l0 -75 -75 0 -75 0 0 75 0 75 75 0 75 0 0 -75z"/>
<path d="M595 40 c21 -22 48 -40 59 -40 17 0 14 6 -19 40 -21 22 -48 40 -59
40 -17 0 -14 -6 19 -40z"/>
<path d="M1038 47 c-21 -19 -38 -37 -38 -40 0 -18 30 -3 65 33 48 49 26 54
-27 7z"/>
<path d="M2265 40 c36 -37 65 -51 65 -32 0 16 -66 72 -85 72 -15 0 -12 -8 20
-40z"/>
<path d="M2695 40 c-33 -34 -36 -40 -19 -40 11 0 38 18 59 40 33 34 36 40 19
40 -11 0 -38 -18 -59 -40z"/>
<path d="M3935 40 c36 -37 65 -51 65 -32 0 16 -66 72 -85 72 -15 0 -12 -8 20
-40z"/>
<path d="M4365 40 c-33 -34 -36 -40 -19 -40 11 0 38 18 59 40 33 34 36 40 19
40 -11 0 -38 -18 -59 -40z"/>
<path d="M5586 58 c41 -47 55 -58 71 -58 12 0 6 11 -22 40 -42 43 -84 59 -49
18z"/>
<path d="M6035 40 c-29 -30 -35 -40 -22 -40 18 0 34 13 71 58 34 40 -6 26 -49
-18z"/>
</g>
</svg>
